<svg width="218" height="52" viewBox="0 0 218 52" fill="none" xmlns="http://www.w3.org/2000/svg">
<path fill-rule="evenodd" clip-rule="evenodd" d="M32.1662 35.0921C32.7758 35.0921 32.7004 34.7425 32.7004 34.093V30.9408C32.7004 30.2888 32.6361 30.0818 33.007 30.0818C34.3016 30.0818 34.6552 29.964 34.6552 28.805V17.0886C34.6552 13.898 32.4061 14.4248 31.7705 13.2596C30.8729 11.6817 33.4546 11.6817 32.5174 8.26542C32.2787 7.49317 31.6729 7.01222 30.5081 7.01222C29.3422 7.01222 28.7351 7.49317 28.4964 8.26542C27.5592 11.6817 30.1446 11.6817 29.242 13.2596C28.6065 14.4248 26.3623 13.898 26.3623 17.0886V28.805C26.3623 29.964 26.711 30.0818 28.0093 30.0818C28.3752 30.0818 28.3147 30.2888 28.3147 30.9408V34.093C28.3147 34.7425 28.238 35.0921 28.85 35.0921H32.1662Z" fill="#1879BF"/>
<path fill-rule="evenodd" clip-rule="evenodd" d="M21.9333 9.6686C20.7859 10.8958 18.9671 13.7567 20.1528 16.1367C22.5639 17.0676 22.3809 8.47862 25.3818 8.62613C26.868 10.0045 24.9391 14.0554 24.3444 15.8404C23.6001 18.0357 23.0103 22.6444 21.5995 24.8744C20.4162 26.7349 21.3052 32.572 20.9306 34.5789C19.9327 35.5817 17.2224 34.8752 16.0738 34.688C16.0738 32.3861 15.7758 30.5652 15.4061 26.8837C15.3702 26.1412 14.5888 14.762 15.2194 13.3873C16.5177 10.5227 23.6001 5.05866 24.5682 4.01743C25.4201 3.08651 28.421 0 29.5734 0C30.387 0.559044 29.9084 1.86183 29.7217 2.37872C28.5743 5.24336 23.6001 8.0708 21.9333 9.6686Z" fill="#1879BF"/>
<path fill-rule="evenodd" clip-rule="evenodd" d="M39.2152 9.6686C40.3256 10.8958 42.1444 13.7567 40.9945 16.1367C38.5476 17.0676 38.733 8.47862 35.7297 8.62613C34.283 10.0045 36.2094 14.0554 36.8042 15.8404C37.5448 18.0357 38.1383 22.6444 39.5478 24.8744C40.7002 26.7349 39.8434 32.572 40.1784 34.5789C41.2146 35.5817 43.8878 34.8752 45.0723 34.688C45.0723 32.3861 45.3344 30.5652 45.7029 26.8837C45.7783 26.1412 46.5573 14.762 45.9267 13.3873C44.6309 10.5227 37.5448 5.05866 36.5841 4.01743C35.6914 3.08651 32.7263 0 31.5752 0C30.7208 0.559044 31.2426 1.86183 31.4268 2.37872C32.578 5.24336 37.5448 8.0708 39.2152 9.6686Z" fill="#1879BF"/>
<path fill-rule="evenodd" clip-rule="evenodd" d="M11.6324 5.81479C10.9981 6.40854 9.58728 6.8176 8.61914 8.12162C8.24944 7.41507 9.21387 5.70323 10.365 4.69546C11.2219 3.98519 12.8936 2.83364 13.3758 2.72208C13.7492 3.57986 12.4113 4.88264 11.6324 5.81479Z" fill="#1879BF"/>
<path fill-rule="evenodd" clip-rule="evenodd" d="M9.66271 10.4681C8.58452 11.4771 7.43462 11.8862 5.9447 13.7108C5.31411 11.5131 5.46248 9.57562 5.75799 8.2716C6.28101 6.55852 7.13169 4.65828 8.58452 4.06081C8.28777 5.03015 7.80061 6.37135 7.68933 8.19723C7.05998 10.6937 6.68904 10.7693 6.83865 11.1028C6.98455 11.1028 7.80061 9.79998 8.80708 8.79346C9.99531 7.601 11.4803 7.33821 12.446 6.6329C12.2988 7.11757 11.4444 8.64472 9.66271 10.4681Z" fill="#1879BF"/>
<path fill-rule="evenodd" clip-rule="evenodd" d="M4.4202 20.79C2.97355 18.1807 2.82271 16.2804 2.71143 14.0827C2.78809 12.5543 3.52872 9.01659 4.644 8.49598C4.31016 11.6978 5.16578 11.9977 4.82823 14.6417C4.82823 14.7905 4.4573 17.5473 4.4573 17.696C4.90489 17.6229 4.49439 15.1624 9.58734 11.6259C8.47206 13.5608 8.99013 14.1583 6.9846 16.7292C4.644 19.0385 4.31016 21.3118 4.4202 20.79Z" fill="#1879BF"/>
<path fill-rule="evenodd" clip-rule="evenodd" d="M6.4665 23.2468C5.38584 24.8124 5.57254 25.5958 5.31412 26.3395C2.74725 24.8496 -0.149761 18.9269 0.925953 15.9842C1.59487 18.2179 2.52592 18.7038 3.19361 20.5644C4.34722 23.3608 4.16175 24.2174 4.90486 24.8496C4.75277 23.3968 5.2387 21.6825 5.72092 20.4156C6.4294 19.3384 6.98457 17.9191 7.50635 17.4345C8.06152 19.4859 7.65473 21.1643 6.4665 23.2468Z" fill="#1879BF"/>
<path fill-rule="evenodd" clip-rule="evenodd" d="M8.77004 28.3141C8.77004 30.5875 8.3583 31.5915 8.17531 33.2687C3.75128 31.8171 1.44653 26.7498 1.44653 24.2546C2.78808 27.3101 4.75281 27.2717 7.32092 31.5916C7.54224 29.9541 6.87332 31.1837 6.7979 28.091C6.87332 24.8496 7.54224 24.738 7.65476 22.7287C8.47206 23.6211 8.77004 27.1985 8.77004 28.3141Z" fill="#1879BF"/>
<path fill-rule="evenodd" clip-rule="evenodd" d="M12.446 34.7599C12.7836 36.437 12.9319 38.4104 13.1904 39.8632C10.6643 38.9335 10.03 39.6388 7.02171 37.741C5.64925 36.996 3.19365 33.8661 3.34574 31.63C6.31569 34.947 6.83871 34.5727 8.28784 35.8023C9.62197 36.882 10.6989 38.4872 11.6683 38.2629C11.7388 37.3692 9.47607 35.4305 9.77158 29.8425C10.3651 30.4747 11.9997 33.0084 12.446 34.7599Z" fill="#1879BF"/>
<path fill-rule="evenodd" clip-rule="evenodd" d="M17.4635 38.9335C18.245 40.0503 18.0608 40.5338 20.0638 42.8443C19.5804 43.0687 16.7229 43.8112 14.825 43.8868C13.565 43.8868 9.10513 42.6968 7.61768 39.6388C10.1784 41.0184 10.2192 40.6838 13.638 41.43C16.0886 41.9878 17.8357 42.7687 18.5046 42.6968C18.3575 42.3609 16.4608 41.5787 15.1613 39.9375C13.8581 38.1873 14.1573 36.2139 13.0037 34.7599C13.7851 34.5355 16.8292 38.1129 17.4635 38.9335Z" fill="#1879BF"/>
<path fill-rule="evenodd" clip-rule="evenodd" d="M49.3083 5.81479C49.9043 6.40854 51.3546 6.8176 52.282 8.12162C52.69 7.41507 51.6885 5.70323 50.5386 4.69546C49.7213 3.98519 48.0496 2.83364 47.5266 2.72208C47.1556 3.57986 48.491 4.88264 49.3083 5.81479Z" fill="#1879BF"/>
<path fill-rule="evenodd" clip-rule="evenodd" d="M51.2792 10.4681C52.3191 11.4771 53.4715 11.8862 54.9577 13.7108C55.592 11.5131 55.4411 9.57562 55.1444 8.2716C54.6622 6.55852 53.7707 4.65828 52.3191 4.06081C52.6554 5.03015 53.1005 6.37135 53.2118 8.19723C53.8424 10.6937 54.2158 10.7693 54.0674 11.1028C53.9191 11.1028 53.1005 9.79998 52.099 8.79346C50.9442 7.601 49.4579 7.33821 48.4564 6.6329C48.6036 7.11757 49.4963 8.64472 51.2792 10.4681Z" fill="#1879BF"/>
<path fill-rule="evenodd" clip-rule="evenodd" d="M56.4834 20.79C57.9672 18.1807 58.0784 16.2804 58.191 14.0827C58.1155 12.5543 57.3737 9.01659 56.2967 8.49598C56.5935 11.6978 55.7391 11.9977 56.1088 14.6417C56.1088 14.7905 56.4451 17.5473 56.4451 17.696C56.0371 17.6229 56.408 15.1624 51.3546 11.6259C52.4316 13.5608 51.9085 14.1583 53.919 16.7292C56.2967 19.0385 56.5935 21.3118 56.4834 20.79Z" fill="#1879BF"/>
<path fill-rule="evenodd" clip-rule="evenodd" d="M54.4768 23.2468C55.5166 24.8124 55.3299 25.5958 55.592 26.3395C58.154 24.8496 61.0893 18.9269 59.9753 15.9842C59.3434 18.2179 58.3778 18.7038 57.7472 20.5644C56.5565 23.3608 56.7419 24.2174 56.0372 24.8496C56.1843 23.3968 55.6637 21.6825 55.1815 20.4156C54.5114 19.3384 53.9191 17.9191 53.3961 17.4345C52.8768 19.4859 53.2477 21.1643 54.4768 23.2468Z" fill="#1879BF"/>
<path fill-rule="evenodd" clip-rule="evenodd" d="M52.1323 28.3141C52.1323 30.5875 52.5774 31.5915 52.7654 33.2687C57.1511 31.8171 59.4929 26.7498 59.4929 24.2546C58.1155 27.3101 56.1842 27.2717 53.5864 31.5916C53.3601 29.9541 54.029 31.1837 54.1045 28.091C54.029 24.8496 53.3601 24.738 53.2476 22.7287C52.4315 23.6211 52.1323 27.1985 52.1323 28.3141Z" fill="#1879BF"/>
<path fill-rule="evenodd" clip-rule="evenodd" d="M48.4564 34.7599C48.1201 36.437 48.0113 38.4104 47.7504 39.8632C50.2393 38.9335 50.8687 39.6388 53.8807 37.741C55.2556 36.996 57.7471 33.8661 57.5962 31.63C54.6238 34.947 54.0674 34.5727 52.6554 35.8023C51.3175 36.882 50.2035 38.4872 49.2341 38.2629C49.1624 37.3692 51.4301 35.4305 51.1679 29.8425C50.5386 30.4747 48.9003 33.0084 48.4564 34.7599Z" fill="#1879BF"/>
<path fill-rule="evenodd" clip-rule="evenodd" d="M43.4377 38.9335C42.6946 40.0503 42.8801 40.5338 40.835 42.8443C41.3567 43.0687 44.182 43.8112 46.1158 43.8868C47.3399 43.8868 51.7998 42.6968 53.2836 39.6388C50.7204 41.0184 50.6845 40.6838 47.2657 41.43C44.8126 41.9878 43.1039 42.7687 42.3978 42.6968C42.5462 42.3609 44.48 41.5787 45.7424 39.9375C47.042 38.1873 46.7464 36.2139 47.9359 34.7599C47.1174 34.5355 44.072 38.1129 43.4377 38.9335Z" fill="#1879BF"/>
<path fill-rule="evenodd" clip-rule="evenodd" d="M24.1169 49.4388L23.3713 49.067C23.3713 49.067 28.0946 43.2918 36.1946 43.7393C44.2946 44.1855 43.7369 46.0858 48.0856 45.7883C48.5678 45.7511 47.7121 46.3833 47.7121 46.3833C47.7121 46.3833 43.4785 48.022 38.2397 46.2333C33.0342 44.4459 29.6513 43.365 24.1169 49.4388Z" fill="#1879BF"/>
<path fill-rule="evenodd" clip-rule="evenodd" d="M36.9364 49.4388L37.6819 49.067C37.6819 49.067 32.9945 43.2918 24.8945 43.7393C16.7587 44.1855 17.3139 46.0858 12.9677 45.7883C12.4868 45.7511 13.3387 46.3833 13.3387 46.3833C13.3387 46.3833 17.576 48.022 22.8173 46.2333C28.0549 44.4459 31.4366 43.365 36.9364 49.4388Z" fill="#1879BF"/>
<path fill-rule="evenodd" clip-rule="evenodd" d="M73.9742 41.2453H71.1465V39.4975H78.8755V41.2453H76.0478V48.9541H73.9742V41.2453Z" fill="#1879BF"/>
<path fill-rule="evenodd" clip-rule="evenodd" d="M79.521 39.4975H81.3992V43.06H81.4375C81.9135 42.2915 82.7321 41.9209 83.4319 41.9209C85.4275 41.9209 85.9283 43.0464 85.9283 44.7433V48.9541H84.0526V45.0855C84.0526 43.9612 83.7237 43.4034 82.852 43.4034C81.8344 43.4034 81.3992 43.9723 81.3992 45.3656V48.9541H79.521V39.4975Z" fill="#1879BF"/>
<path fill-rule="evenodd" clip-rule="evenodd" d="M88.6102 45.9866C88.6634 47.1778 89.2445 47.722 90.2881 47.722C91.0423 47.722 91.6482 47.2584 91.7669 46.8345H93.4188C92.8908 48.4496 91.7669 49.1401 90.2225 49.1401C88.0699 49.1401 86.7333 47.6563 86.7333 45.5367C86.7333 43.4839 88.149 41.9208 90.2225 41.9208C92.5483 41.9208 93.671 43.8806 93.5387 45.9866H88.6102ZM91.663 44.7942C91.4899 43.8422 91.0806 43.3389 90.1694 43.3389C88.9811 43.3389 88.6374 44.2661 88.6102 44.7942H91.663Z" fill="#1879BF"/>
<path fill-rule="evenodd" clip-rule="evenodd" d="M105.573 45.378C105.573 47.934 104.066 49.1797 101.543 49.1797C99.0075 49.1797 97.5262 47.9464 97.5262 45.378V39.4975H99.601V45.378C99.601 46.4106 99.8656 47.4307 101.543 47.4307C103.022 47.4307 103.498 46.7812 103.498 45.378V39.4975H105.573V45.378Z" fill="#1879BF"/>
<path fill-rule="evenodd" clip-rule="evenodd" d="M106.959 39.4975H109.02L112.956 45.8416H112.983V39.4975H114.926V48.9541H112.852L108.926 42.6237H108.9V48.9541H106.959V39.4975Z" fill="#1879BF"/>
<path fill-rule="evenodd" clip-rule="evenodd" d="M121.227 41.1114H123.498C124.422 41.1114 124.925 41.5106 124.925 42.4241C124.925 43.3798 124.422 43.7752 123.498 43.7752H121.227V41.1114ZM119.151 48.9541H121.227V45.259H123.3C124.344 45.259 124.726 45.6953 124.872 46.6895C124.978 47.4444 124.951 48.3579 125.202 48.9541H127.277C126.907 48.4236 126.92 47.3117 126.88 46.7155C126.814 45.7623 126.524 44.7694 125.505 44.5041V44.4768C126.55 44.0529 126.998 43.2187 126.998 42.108C126.998 40.6776 125.93 39.4975 124.237 39.4975H119.151V48.9541Z" fill="#1879BF"/>
<path fill-rule="evenodd" clip-rule="evenodd" d="M129.8 44.7942C129.826 44.2661 130.169 43.3389 131.358 43.3389C132.269 43.3389 132.68 43.8422 132.852 44.7942H129.8ZM134.726 45.9866C134.86 43.8806 133.736 41.9208 131.411 41.9208C129.336 41.9208 127.923 43.4839 127.923 45.5367C127.923 47.6563 129.257 49.1401 131.411 49.1401C132.958 49.1401 134.08 48.4496 134.609 46.8345H132.958C132.837 47.2584 132.23 47.722 131.477 47.722C130.434 47.722 129.852 47.1778 129.8 45.9866H134.726Z" fill="#1879BF"/>
<path fill-rule="evenodd" clip-rule="evenodd" d="M136.008 43.365H134.884V42.108H136.008V41.5763C136.008 40.3726 136.761 39.4975 138.293 39.4975C138.623 39.4975 138.967 39.5372 139.285 39.552V40.954C139.061 40.9292 138.836 40.9156 138.596 40.9156C138.097 40.9156 137.884 41.1263 137.884 41.6977V42.108H139.179V43.365H137.884V48.9541H136.008V43.365Z" fill="#1879BF"/>
<path fill-rule="evenodd" clip-rule="evenodd" d="M146.167 48.9541H144.383V47.9997H144.343C143.867 48.767 143.049 49.1401 142.256 49.1401C140.262 49.1401 139.76 48.0121 139.76 46.3176V42.108H141.635V45.9742C141.635 47.101 141.966 47.6563 142.839 47.6563C143.855 47.6563 144.29 47.0861 144.29 45.6953V42.108H146.167V48.9541Z" fill="#1879BF"/>
<path fill-rule="evenodd" clip-rule="evenodd" d="M150.485 47.3377C149.336 47.3377 148.968 46.2643 148.968 45.2838C148.968 44.2661 149.429 43.3389 150.485 43.3389C151.703 43.3389 152.085 44.3318 152.085 45.4437C152.085 46.4242 151.557 47.3377 150.485 47.3377ZM153.868 42.108H152.085V43.0216H152.056C151.61 42.2258 150.922 41.9208 150.024 41.9208C148.108 41.9208 147.092 43.5372 147.092 45.3111C147.092 47.1927 147.962 48.7558 150.011 48.7558C150.828 48.7558 151.648 48.41 152.056 47.6947H152.085V48.5959C152.097 49.5764 151.621 50.2904 150.579 50.2904C149.917 50.2904 149.35 50.0524 149.178 49.352H147.314C147.406 50.9126 148.98 51.5498 150.328 51.5498C153.472 51.5498 153.868 49.6421 153.868 48.5166V42.108Z" fill="#1879BF"/>
<path fill-rule="evenodd" clip-rule="evenodd" d="M156.682 44.7942C156.707 44.2661 157.052 43.3389 158.241 43.3389C159.152 43.3389 159.56 43.8422 159.732 44.7942H156.682ZM161.61 45.9866C161.741 43.8806 160.619 41.9208 158.293 41.9208C156.221 41.9208 154.806 43.4839 154.806 45.5367C154.806 47.6563 156.14 49.1401 158.293 49.1401C159.839 49.1401 160.962 48.4496 161.489 46.8345H159.839C159.72 47.2584 159.113 47.722 158.36 47.722C157.316 47.722 156.735 47.1778 156.682 45.9866H161.61Z" fill="#1879BF"/>
<path fill-rule="evenodd" clip-rule="evenodd" d="M164.028 44.7942C164.054 44.2661 164.396 43.3389 165.586 43.3389C166.497 43.3389 166.906 43.8422 167.077 44.7942H164.028ZM168.952 45.9866C169.085 43.8806 167.963 41.9208 165.637 41.9208C163.563 41.9208 162.149 43.4839 162.149 45.5367C162.149 47.6563 163.485 49.1401 165.637 49.1401C167.184 49.1401 168.307 48.4496 168.835 46.8345H167.184C167.064 47.2584 166.456 47.722 165.704 47.722C164.659 47.722 164.08 47.1778 164.028 45.9866H168.952Z" fill="#1879BF"/>
<path fill-rule="evenodd" clip-rule="evenodd" d="M176.537 41.8279H176.563L177.752 45.2974H175.309L176.537 41.8279ZM171.926 48.9541H174.026L174.767 46.8494H178.294L179.005 48.9541H181.16L177.633 39.4975H175.506L171.926 48.9541Z" fill="#1879BF"/>
<path fill-rule="evenodd" clip-rule="evenodd" d="M184.674 47.3377C183.524 47.3377 183.154 46.2643 183.154 45.2838C183.154 44.2661 183.615 43.3389 184.674 43.3389C185.888 43.3389 186.273 44.3318 186.273 45.4437C186.273 46.4242 185.745 47.3377 184.674 47.3377ZM188.056 42.108H186.273V43.0216H186.245C185.797 42.2258 185.109 41.9208 184.213 41.9208C182.295 41.9208 181.279 43.5372 181.279 45.3111C181.279 47.1927 182.151 48.7558 184.198 48.7558C185.016 48.7558 185.837 48.41 186.245 47.6947H186.273V48.5959C186.284 49.5764 185.81 50.2904 184.767 50.2904C184.106 50.2904 183.536 50.0524 183.367 49.352H181.502C181.595 50.9126 183.168 51.5498 184.516 51.5498C187.659 51.5498 188.056 49.6421 188.056 48.5166V42.108Z" fill="#1879BF"/>
<path fill-rule="evenodd" clip-rule="evenodd" d="M190.869 44.7942C190.895 44.2661 191.238 43.3389 192.428 43.3389C193.339 43.3389 193.75 43.8422 193.919 44.7942H190.869ZM195.797 45.9866C195.929 43.8806 194.805 41.9208 192.481 41.9208C190.405 41.9208 188.994 43.4839 188.994 45.5367C188.994 47.6563 190.327 49.1401 192.481 49.1401C194.028 49.1401 195.149 48.4496 195.676 46.8345H194.028C193.908 47.2584 193.298 47.722 192.546 47.722C191.504 47.722 190.922 47.1778 190.869 45.9866H195.797Z" fill="#1879BF"/>
<path fill-rule="evenodd" clip-rule="evenodd" d="M196.616 42.108H198.399V43.06H198.438C198.914 42.2915 199.734 41.9208 200.525 41.9208C202.52 41.9208 203.023 43.0464 203.023 44.7433V48.9541H201.147V45.0854C201.147 43.9612 200.816 43.4034 199.944 43.4034C198.927 43.4034 198.491 43.9723 198.491 45.3656V48.9541H196.616V42.108Z" fill="#1879BF"/>
<path fill-rule="evenodd" clip-rule="evenodd" d="M208.807 44.5177C208.691 43.748 208.2 43.3389 207.422 43.3389C206.219 43.3389 205.822 44.5574 205.822 45.5627C205.822 46.5444 206.206 47.722 207.381 47.722C208.253 47.722 208.755 47.1667 208.875 46.3312H210.684C210.448 48.1447 209.19 49.1401 207.395 49.1401C205.334 49.1401 203.947 47.6823 203.947 45.6284C203.947 43.4976 205.215 41.9208 207.433 41.9208C209.047 41.9208 210.526 42.7687 210.643 44.5177H208.807Z" fill="#1879BF"/>
<path fill-rule="evenodd" clip-rule="evenodd" d="M214.873 49.8144C214.461 50.9127 213.815 51.3626 212.519 51.3626C212.137 51.3626 211.755 51.3378 211.371 51.2982V49.7475C211.729 49.7735 212.096 49.8268 212.468 49.8144C213.114 49.7475 213.326 49.0719 213.114 48.529L210.711 42.108H212.719L214.265 46.7961H214.291L215.782 42.108H217.726L214.873 49.8144Z" fill="#1879BF"/>
<path fill-rule="evenodd" clip-rule="evenodd" d="M96.6645 24.1678C96.6645 31.9299 92.4791 35.6561 83.9512 35.6561C75.4222 35.6561 71.1985 31.9299 71.1985 24.1678V6.99114H79.803V22.2452C79.803 25.1074 79.803 28.6761 83.9908 28.6761C88.0588 28.6761 88.0587 25.1074 88.0587 22.2452V6.99114H96.6645V24.1678Z" fill="#1879BF"/>
<path fill-rule="evenodd" clip-rule="evenodd" d="M101.827 6.99114H110.626L118.764 21.97H118.841V6.99114H126.976V34.988H118.608L110.04 19.6954H109.963V34.988H101.827V6.99114Z" fill="#1879BF"/>
<path fill-rule="evenodd" clip-rule="evenodd" d="M132.258 6.99114H140.863V16.7155H148.922V6.99114H157.529V34.988H148.922V23.8914H140.863V34.988H132.258V6.99114Z" fill="#1879BF"/>
<path fill-rule="evenodd" clip-rule="evenodd" d="M179.549 17.4221C179.392 16.4007 178.61 13.3042 175.051 13.3042C171.02 13.3042 169.729 17.2238 169.729 20.9895C169.729 24.7541 171.02 28.6761 175.051 28.6761C177.945 28.6761 179.08 26.637 179.588 24.0091H188.037C188.037 29.6566 183.46 35.6561 175.284 35.6561C166.251 35.6561 161.125 29.2624 161.125 20.9895C161.125 12.1663 166.68 6.32549 175.284 6.32549C182.95 6.36268 187.178 10.4024 187.92 17.4221H179.549Z" fill="#1879BF"/>
<path fill-rule="evenodd" clip-rule="evenodd" d="M200.238 13.6538H204.27C207.554 13.6538 208.532 14.674 208.532 16.4416C208.532 18.9492 206.342 19.2256 204.739 19.2256H200.238V13.6538ZM191.634 34.988H200.238V25.2251H204.818C208.221 25.2251 208.452 28.0092 208.691 30.678C208.806 32.1283 208.96 33.5786 209.393 34.988H218C217.215 33.6951 217.179 30.3619 217.059 28.9909C216.746 25.4979 215.3 22.9109 212.952 22.0097C215.808 20.9486 217.139 17.8919 217.139 14.9901C217.139 9.69339 212.912 6.99114 208.024 6.99114H191.634V34.988Z" fill="#1879BF"/>
</svg>
