<svg width="32" height="32" viewBox="0 0 32 32" fill="none" xmlns="http://www.w3.org/2000/svg">
<mask id="mask0_86_861" style="mask-type:alpha" maskUnits="userSpaceOnUse" x="0" y="0" width="32" height="32">
<rect width="32" height="32" fill="#D9D9D9"/>
</mask>
<g mask="url(#mask0_86_861)">
<path d="M21.3334 30.6667C20.9556 30.6667 20.639 30.5389 20.3834 30.2834C20.1279 30.0278 20.0001 29.7111 20.0001 29.3334C20.0001 28.9556 20.1279 28.6389 20.3834 28.3834C20.639 28.1278 20.9556 28 21.3334 28H25.3334V26.6667H21.3334C20.9556 26.6667 20.639 26.5389 20.3834 26.2834C20.1279 26.0278 20.0001 25.7111 20.0001 25.3334C20.0001 24.9556 20.1279 24.6389 20.3834 24.3834C20.639 24.1278 20.9556 24 21.3334 24H25.3334V22.6667H21.3334C20.9556 22.6667 20.639 22.5389 20.3834 22.2834C20.1279 22.0278 20.0001 21.7111 20.0001 21.3334C20.0001 20.9556 20.1279 20.6389 20.3834 20.3834C20.639 20.1278 20.9556 20 21.3334 20H25.3334V18.6667H21.3334C20.9556 18.6667 20.639 18.5389 20.3834 18.2834C20.1279 18.0278 20.0001 17.7111 20.0001 17.3334C20.0001 16.9556 20.1279 16.6389 20.3834 16.3834C20.639 16.1278 20.9556 16 21.3334 16H25.3334V14.6667H21.3334C20.9556 14.6667 20.639 14.5389 20.3834 14.2834C20.1279 14.0278 20.0001 13.7111 20.0001 13.3334C20.0001 12.9556 20.1279 12.6389 20.3834 12.3834C20.639 12.1278 20.9556 12 21.3334 12H25.3334V10.6667H21.3334C20.9556 10.6667 20.639 10.5389 20.3834 10.2834C20.1279 10.0278 20.0001 9.71113 20.0001 9.33335C20.0001 8.95558 20.1279 8.63891 20.3834 8.38335C20.639 8.1278 20.9556 8.00002 21.3334 8.00002H26.6667C27.4001 8.00002 28.0279 8.26113 28.5501 8.78335C29.0723 9.30558 29.3334 9.93335 29.3334 10.6667V28C29.3334 28.7334 29.0723 29.3611 28.5501 29.8834C28.0279 30.4056 27.4001 30.6667 26.6667 30.6667H21.3334ZM10.6667 20C12.1334 20 13.389 19.2778 14.4334 17.8334C15.4779 16.3889 16.0001 14.6667 16.0001 12.6667C16.0001 10.6667 15.4779 8.94447 14.4334 7.50002C13.389 6.05558 12.1334 5.33335 10.6667 5.33335C9.20008 5.33335 7.94453 6.05558 6.90008 7.50002C5.85564 8.94447 5.33341 10.6667 5.33341 12.6667C5.33341 14.6667 5.85564 16.3889 6.90008 17.8334C7.94453 19.2778 9.20008 20 10.6667 20ZM10.6667 30.6667C9.60008 30.6667 8.7223 30.2722 8.03341 29.4834C7.34453 28.6945 7.07786 27.7667 7.23341 26.7L7.76675 22C6.25564 21.2667 5.02786 20.0611 4.08341 18.3834C3.13897 16.7056 2.66675 14.8 2.66675 12.6667C2.66675 9.88891 3.44453 7.5278 5.00008 5.58335C6.55564 3.63891 8.44453 2.66669 10.6667 2.66669C12.889 2.66669 14.7779 3.63891 16.3334 5.58335C17.889 7.5278 18.6667 9.88891 18.6667 12.6667C18.6667 14.8 18.1945 16.7056 17.2501 18.3834C16.3056 20.0611 15.0779 21.2667 13.5667 22L14.1001 26.7C14.2556 27.7667 13.989 28.6945 13.3001 29.4834C12.6112 30.2722 11.7334 30.6667 10.6667 30.6667Z" fill="#15803D"/>
</g>
</svg>
