<svg width="32" height="32" viewBox="0 0 32 32" fill="none" xmlns="http://www.w3.org/2000/svg">
<mask id="mask0_165_412" style="mask-type:alpha" maskUnits="userSpaceOnUse" x="0" y="0" width="32" height="32">
<rect width="32" height="32" fill="#D9D9D9"/>
</mask>
<g mask="url(#mask0_165_412)">
<path d="M16.6666 30.6667C13.5111 30.6667 10.8333 29.5667 8.63331 27.3667C6.43331 25.1667 5.33331 22.4889 5.33331 19.3334V6.66671C5.33331 6.28893 5.46109 5.97226 5.71665 5.71671C5.9722 5.46115 6.28887 5.33337 6.66665 5.33337C7.04442 5.33337 7.36109 5.46115 7.61665 5.71671C7.8722 5.97226 7.99998 6.28893 7.99998 6.66671V14.6667H10.6666V4.00004C10.6666 3.62226 10.7944 3.3056 11.05 3.05004C11.3055 2.79449 11.6222 2.66671 12 2.66671C12.3778 2.66671 12.6944 2.79449 12.95 3.05004C13.2055 3.3056 13.3333 3.62226 13.3333 4.00004V14.6667H16V2.66671C16 2.28893 16.1278 1.97226 16.3833 1.71671C16.6389 1.46115 16.9555 1.33337 17.3333 1.33337C17.7111 1.33337 18.0278 1.46115 18.2833 1.71671C18.5389 1.97226 18.6666 2.28893 18.6666 2.66671V14.6667H21.3333V5.33337C21.3333 4.9556 21.4611 4.63893 21.7166 4.38337C21.9722 4.12782 22.2889 4.00004 22.6666 4.00004C23.0444 4.00004 23.3611 4.12782 23.6166 4.38337C23.8722 4.63893 24 4.9556 24 5.33337V13C23.3555 13.4667 22.8611 14.0556 22.5166 14.7667C22.1722 15.4778 22 16.2223 22 17V18.6667H20.3333C18.9333 18.6667 17.75 19.15 16.7833 20.1167C15.8166 21.0834 15.3333 22.2667 15.3333 23.6667V25.3334H17.3333V23.6667C17.3333 22.8223 17.6222 22.1112 18.2 21.5334C18.7778 20.9556 19.4889 20.6667 20.3333 20.6667H24V17C24 16.1556 24.2889 15.4445 24.8666 14.8667C25.4444 14.2889 26.1555 14 27 14H28V19.3334C28 22.4889 26.9 25.1667 24.7 27.3667C22.5 29.5667 19.8222 30.6667 16.6666 30.6667Z" fill="#15803D"/>
</g>
</svg>
