<svg width="32" height="32" viewBox="0 0 32 32" fill="none" xmlns="http://www.w3.org/2000/svg">
<mask id="mask0_188_648" style="mask-type:alpha" maskUnits="userSpaceOnUse" x="0" y="0" width="32" height="32">
<rect width="32" height="32" fill="#D9D9D9"/>
</mask>
<g mask="url(#mask0_188_648)">
<path d="M16.0001 28.0001L14.0667 26.2668C11.8223 24.2446 9.96675 22.5001 8.50008 21.0334C7.03341 19.5668 5.86675 18.2501 5.00008 17.0834C4.13341 15.9168 3.52786 14.8446 3.18341 13.8668C2.83897 12.889 2.66675 11.889 2.66675 10.8668C2.66675 8.77789 3.36675 7.03345 4.76675 5.63345C6.16675 4.23345 7.91119 3.53345 10.0001 3.53345C11.1556 3.53345 12.2556 3.77789 13.3001 4.26678C14.3445 4.75567 15.2445 5.44456 16.0001 6.33345C16.7556 5.44456 17.6556 4.75567 18.7001 4.26678C19.7445 3.77789 20.8445 3.53345 22.0001 3.53345C24.089 3.53345 25.8334 4.23345 27.2334 5.63345C28.6334 7.03345 29.3334 8.77789 29.3334 10.8668C29.3334 11.889 29.1612 12.889 28.8167 13.8668C28.4723 14.8446 27.8667 15.9168 27.0001 17.0834C26.1334 18.2501 24.9667 19.5668 23.5001 21.0334C22.0334 22.5001 20.1779 24.2446 17.9334 26.2668L16.0001 28.0001Z" fill="#15803D"/>
</g>
</svg>
