<svg width="32" height="32" viewBox="0 0 32 32" fill="none" xmlns="http://www.w3.org/2000/svg">
<mask id="mask0_165_571" style="mask-type:alpha" maskUnits="userSpaceOnUse" x="0" y="0" width="32" height="32">
<rect width="32" height="32" fill="#D9D9D9"/>
</mask>
<g mask="url(#mask0_165_571)">
<path d="M9.33331 26.7V14.6666H11.4666C11.6222 14.6666 11.7778 14.6833 11.9333 14.7166C12.0889 14.75 12.2444 14.7888 12.4 14.8333L21.6333 18.2666C21.9444 18.3777 22.1944 18.5777 22.3833 18.8666C22.5722 19.1555 22.6666 19.4555 22.6666 19.7666C22.6666 20.2333 22.5055 20.6111 22.1833 20.9C21.8611 21.1888 21.4889 21.3333 21.0666 21.3333H17.5666C17.4555 21.3333 17.3722 21.3277 17.3166 21.3166C17.2611 21.3055 17.1889 21.2777 17.1 21.2333L14.9666 20.4L14.5333 21.7L17.1 22.6C17.1444 22.6222 17.2111 22.6388 17.3 22.65C17.3889 22.6611 17.4666 22.6666 17.5333 22.6666H26.6666C27.3778 22.6666 28 22.9222 28.5333 23.4333C29.0666 23.9444 29.3333 24.5777 29.3333 25.3333L18.7 29.3333L9.33331 26.7ZM1.33331 29.3333V14.6666H6.66665V29.3333H1.33331ZM21.3333 17.3333L15.8 11.9333C15.1111 11.2666 14.5278 10.5277 14.05 9.71663C13.5722 8.90551 13.3333 8.02218 13.3333 7.06663C13.3333 5.8444 13.7611 4.80551 14.6166 3.94996C15.4722 3.0944 16.5111 2.66663 17.7333 2.66663C18.4444 2.66663 19.1111 2.81663 19.7333 3.11663C20.3555 3.41663 20.8889 3.82218 21.3333 4.33329C21.7778 3.82218 22.3111 3.41663 22.9333 3.11663C23.5555 2.81663 24.2222 2.66663 24.9333 2.66663C26.1555 2.66663 27.1944 3.0944 28.05 3.94996C28.9055 4.80551 29.3333 5.8444 29.3333 7.06663C29.3333 8.02218 29.1 8.90551 28.6333 9.71663C28.1666 10.5277 27.5889 11.2666 26.9 11.9333L21.3333 17.3333Z" fill="#15803D"/>
</g>
</svg>
