<svg width="32" height="32" viewBox="0 0 32 32" fill="none" xmlns="http://www.w3.org/2000/svg">
<mask id="mask0_165_222" style="mask-type:alpha" maskUnits="userSpaceOnUse" x="0" y="0" width="32" height="32">
<rect width="32" height="32" fill="#D9D9D9"/>
</mask>
<g mask="url(#mask0_165_222)">
<path d="M7.3333 16.5334L2.1333 11.3334L7.3333 6.13337L12.5333 11.3334L7.3333 16.5334ZM12 29.3334V22.6667C10.6444 22.5556 9.29997 22.3945 7.96663 22.1834C6.6333 21.9723 5.31108 21.6889 3.99997 21.3334L4.66663 18.6667C6.5333 19.1778 8.40552 19.5278 10.2833 19.7167C12.1611 19.9056 14.0666 20 16 20C17.9333 20 19.8389 19.9056 21.7166 19.7167C23.5944 19.5278 25.4666 19.1778 27.3333 18.6667L28 21.3334C26.6889 21.6889 25.3666 21.9723 24.0333 22.1834C22.7 22.3945 21.3555 22.5556 20 22.6667V29.3334H12ZM16 9.33337C14.8889 9.33337 13.9444 8.94449 13.1666 8.16671C12.3889 7.38893 12 6.44449 12 5.33337C12 4.22226 12.3889 3.27782 13.1666 2.50004C13.9444 1.72226 14.8889 1.33337 16 1.33337C17.1111 1.33337 18.0555 1.72226 18.8333 2.50004C19.6111 3.27782 20 4.22226 20 5.33337C20 6.44449 19.6111 7.38893 18.8333 8.16671C18.0555 8.94449 17.1111 9.33337 16 9.33337ZM16 18.6667C15.2666 18.6667 14.6389 18.4056 14.1166 17.8834C13.5944 17.3612 13.3333 16.7334 13.3333 16C13.3333 15.2667 13.5944 14.6389 14.1166 14.1167C14.6389 13.5945 15.2666 13.3334 16 13.3334C16.7333 13.3334 17.3611 13.5945 17.8833 14.1167C18.4055 14.6389 18.6666 15.2667 18.6666 16C18.6666 16.7334 18.4055 17.3612 17.8833 17.8834C17.3611 18.4056 16.7333 18.6667 16 18.6667ZM22.7333 16L20.4666 12L22.7333 8.00004H27.2666L29.5333 12L27.2666 16H22.7333Z" fill="#15803D"/>
</g>
</svg>
