<svg width="32" height="32" viewBox="0 0 32 32" fill="none" xmlns="http://www.w3.org/2000/svg">
<mask id="mask0_188_1350" style="mask-type:alpha" maskUnits="userSpaceOnUse" x="0" y="0" width="32" height="32">
<rect width="32" height="32" fill="#D9D9D9"/>
</mask>
<g mask="url(#mask0_188_1350)">
<path d="M9.33325 29.3333C7.11103 29.3333 5.22214 28.5555 3.66659 27C2.11103 25.4444 1.33325 23.5555 1.33325 21.3333V12H17.3333V21.3333C17.3333 23.5555 16.5555 25.4444 14.9999 27C13.4444 28.5555 11.5555 29.3333 9.33325 29.3333ZM6.66659 19.3333C7.04436 19.3333 7.36103 19.2055 7.61659 18.95C7.87214 18.6944 7.99992 18.3777 7.99992 18C7.99992 17.6222 7.87214 17.3055 7.61659 17.05C7.36103 16.7944 7.04436 16.6666 6.66659 16.6666C6.28881 16.6666 5.97214 16.7944 5.71659 17.05C5.46103 17.3055 5.33325 17.6222 5.33325 18C5.33325 18.3777 5.46103 18.6944 5.71659 18.95C5.97214 19.2055 6.28881 19.3333 6.66659 19.3333ZM9.33325 23.8666C10.1999 23.8666 10.9721 23.6388 11.6499 23.1833C12.3277 22.7277 12.6666 22.1111 12.6666 21.3333H5.99992C5.99992 22.1111 6.33881 22.7277 7.01659 23.1833C7.69436 23.6388 8.46659 23.8666 9.33325 23.8666ZM11.9999 19.3333C12.3777 19.3333 12.6944 19.2055 12.9499 18.95C13.2055 18.6944 13.3333 18.3777 13.3333 18C13.3333 17.6222 13.2055 17.3055 12.9499 17.05C12.6944 16.7944 12.3777 16.6666 11.9999 16.6666C11.6221 16.6666 11.3055 16.7944 11.0499 17.05C10.7944 17.3055 10.6666 17.6222 10.6666 18C10.6666 18.3777 10.7944 18.6944 11.0499 18.95C11.3055 19.2055 11.6221 19.3333 11.9999 19.3333ZM22.6666 20C22.0888 20 21.5166 19.9388 20.9499 19.8166C20.3833 19.6944 19.8444 19.5111 19.3333 19.2666V9.99996H14.6666V2.66663H30.6666V12C30.6666 14.2222 29.8888 16.1111 28.3333 17.6666C26.7777 19.2222 24.8888 20 22.6666 20ZM19.9999 9.99996C20.3777 9.99996 20.6944 9.87218 20.9499 9.61663C21.2055 9.36107 21.3333 9.0444 21.3333 8.66663C21.3333 8.28885 21.2055 7.97218 20.9499 7.71663C20.6944 7.46107 20.3777 7.33329 19.9999 7.33329C19.6221 7.33329 19.3055 7.46107 19.0499 7.71663C18.7944 7.97218 18.6666 8.28885 18.6666 8.66663C18.6666 9.0444 18.7944 9.36107 19.0499 9.61663C19.3055 9.87218 19.6221 9.99996 19.9999 9.99996ZM19.3333 14.5333H25.9999C25.9999 13.7555 25.661 13.1388 24.9833 12.6833C24.3055 12.2277 23.5333 12 22.6666 12C21.911 12 21.1666 12.2 20.4333 12.6C19.6999 13 19.3333 13.6444 19.3333 14.5333ZM25.3333 9.99996C25.711 9.99996 26.0277 9.87218 26.2833 9.61663C26.5388 9.36107 26.6666 9.0444 26.6666 8.66663C26.6666 8.28885 26.5388 7.97218 26.2833 7.71663C26.0277 7.46107 25.711 7.33329 25.3333 7.33329C24.9555 7.33329 24.6388 7.46107 24.3833 7.71663C24.1277 7.97218 23.9999 8.28885 23.9999 8.66663C23.9999 9.0444 24.1277 9.36107 24.3833 9.61663C24.6388 9.87218 24.9555 9.99996 25.3333 9.99996Z" fill="#15803D"/>
</g>
</svg>
