<svg width="32" height="32" viewBox="0 0 32 32" fill="none" xmlns="http://www.w3.org/2000/svg">
<mask id="mask0_165_1617" style="mask-type:alpha" maskUnits="userSpaceOnUse" x="0" y="0" width="32" height="32">
<rect width="32" height="32" fill="#D9D9D9"/>
</mask>
<g mask="url(#mask0_165_1617)">
<path d="M9.33331 29.3333C8.59998 29.3333 7.9722 29.0722 7.44998 28.55C6.92776 28.0277 6.66665 27.4 6.66665 26.6666C6.66665 25.9333 6.92776 25.3055 7.44998 24.7833C7.9722 24.2611 8.59998 24 9.33331 24C10.0666 24 10.6944 24.2611 11.2166 24.7833C11.7389 25.3055 12 25.9333 12 26.6666C12 27.4 11.7389 28.0277 11.2166 28.55C10.6944 29.0722 10.0666 29.3333 9.33331 29.3333ZM22.6666 29.3333C21.9333 29.3333 21.3055 29.0722 20.7833 28.55C20.2611 28.0277 20 27.4 20 26.6666C20 25.9333 20.2611 25.3055 20.7833 24.7833C21.3055 24.2611 21.9333 24 22.6666 24C23.4 24 24.0278 24.2611 24.55 24.7833C25.0722 25.3055 25.3333 25.9333 25.3333 26.6666C25.3333 27.4 25.0722 28.0277 24.55 28.55C24.0278 29.0722 23.4 29.3333 22.6666 29.3333ZM6.93331 5.33329H26.6C27.1111 5.33329 27.5 5.56107 27.7666 6.01663C28.0333 6.47218 28.0444 6.93329 27.8 7.39996L23.0666 15.9333C22.8222 16.3777 22.4944 16.7222 22.0833 16.9666C21.6722 17.2111 21.2222 17.3333 20.7333 17.3333H10.8L9.33331 20H25.3333V22.6666H9.33331C8.33331 22.6666 7.57776 22.2277 7.06665 21.35C6.55554 20.4722 6.53331 19.6 6.99998 18.7333L8.79998 15.4666L3.99998 5.33329H1.33331V2.66663H5.66665L6.93331 5.33329Z" fill="#15803D"/>
</g>
</svg>
