<svg width="32" height="32" viewBox="0 0 32 32" fill="none" xmlns="http://www.w3.org/2000/svg">
<mask id="mask0_165_625" style="mask-type:alpha" maskUnits="userSpaceOnUse" x="0" y="0" width="32" height="32">
<rect width="32" height="32" fill="#D9D9D9"/>
</mask>
<g mask="url(#mask0_165_625)">
<path d="M20.4 22.2666L22.2667 20.4L17.3334 15.4666V9.33329H14.6667V16.5333L20.4 22.2666ZM16 29.3333C14.1556 29.3333 12.4222 28.9833 10.8 28.2833C9.1778 27.5833 7.76669 26.6333 6.56669 25.4333C5.36669 24.2333 4.41669 22.8222 3.71669 21.2C3.01669 19.5777 2.66669 17.8444 2.66669 16C2.66669 14.1555 3.01669 12.4222 3.71669 10.8C4.41669 9.17774 5.36669 7.76663 6.56669 6.56663C7.76669 5.36663 9.1778 4.41663 10.8 3.71663C12.4222 3.01663 14.1556 2.66663 16 2.66663C17.8445 2.66663 19.5778 3.01663 21.2 3.71663C22.8222 4.41663 24.2334 5.36663 25.4334 6.56663C26.6334 7.76663 27.5834 9.17774 28.2834 10.8C28.9834 12.4222 29.3334 14.1555 29.3334 16C29.3334 17.8444 28.9834 19.5777 28.2834 21.2C27.5834 22.8222 26.6334 24.2333 25.4334 25.4333C24.2334 26.6333 22.8222 27.5833 21.2 28.2833C19.5778 28.9833 17.8445 29.3333 16 29.3333Z" fill="#15803D"/>
</g>
</svg>
