<svg width="32" height="32" viewBox="0 0 32 32" fill="none" xmlns="http://www.w3.org/2000/svg">
<mask id="mask0_165_604" style="mask-type:alpha" maskUnits="userSpaceOnUse" x="0" y="0" width="32" height="32">
<rect width="32" height="32" fill="#D9D9D9"/>
</mask>
<g mask="url(#mask0_165_604)">
<path d="M25.3333 21.3334C23.7333 21.3334 22.3222 20.8334 21.1 19.8334C19.8778 18.8334 19.1111 17.5556 18.8 16H14.8333L13.2333 13.3334H18.8C18.9111 12.8445 19.0611 12.3778 19.25 11.9334C19.4389 11.4889 19.6889 11.0667 20 10.6667H11.6L10 8.00004H21.4L19.9333 4.00004H14.6667V1.33337H19.9333C20.5111 1.33337 21.0222 1.49449 21.4667 1.81671C21.9111 2.13893 22.2333 2.56671 22.4333 3.10004L24.2333 8.00004H25.3333C27.1778 8.00004 28.75 8.65004 30.05 9.95004C31.35 11.25 32 12.8223 32 14.6667C32 16.5112 31.35 18.0834 30.05 19.3834C28.75 20.6834 27.1778 21.3334 25.3333 21.3334ZM25.3333 18.6667C26.4444 18.6667 27.3889 18.2778 28.1667 17.5C28.9444 16.7223 29.3333 15.7778 29.3333 14.6667C29.3333 13.5556 28.9444 12.6112 28.1667 11.8334C27.3889 11.0556 26.4444 10.6667 25.3333 10.6667H25.2333L26.5333 14.2334L24 15.1334L22.7333 11.6334C22.2889 12.0112 21.9444 12.4667 21.7 13C21.4556 13.5334 21.3333 14.0889 21.3333 14.6667C21.3333 15.7778 21.7222 16.7223 22.5 17.5C23.2778 18.2778 24.2222 18.6667 25.3333 18.6667ZM9.33333 30.6667C8.22222 30.6667 7.27778 30.2778 6.5 29.5C5.72222 28.7223 5.33333 27.7778 5.33333 26.6667H0V18.6667H2.66667V14.6667H0V12H9.33333L13.3333 18.6667H16C16.7333 18.6667 17.3611 18.9278 17.8833 19.45C18.4056 19.9723 18.6667 20.6 18.6667 21.3334V24C18.6667 24.7334 18.4056 25.3612 17.8833 25.8834C17.3611 26.4056 16.7333 26.6667 16 26.6667H13.3333C13.3333 27.7778 12.9444 28.7223 12.1667 29.5C11.3889 30.2778 10.4444 30.6667 9.33333 30.6667ZM5.33333 18.6667H10.2333L7.83333 14.6667H5.33333V18.6667ZM9.33333 28C9.71111 28 10.0278 27.8723 10.2833 27.6167C10.5389 27.3612 10.6667 27.0445 10.6667 26.6667C10.6667 26.2889 10.5389 25.9723 10.2833 25.7167C10.0278 25.4612 9.71111 25.3334 9.33333 25.3334C8.95556 25.3334 8.63889 25.4612 8.38333 25.7167C8.12778 25.9723 8 26.2889 8 26.6667C8 27.0445 8.12778 27.3612 8.38333 27.6167C8.63889 27.8723 8.95556 28 9.33333 28Z" fill="#15803D"/>
</g>
</svg>
