<svg width="40" height="40" viewBox="0 0 40 40" fill="none" xmlns="http://www.w3.org/2000/svg">
<g clip-path="url(#clip0_51_210)">
<mask id="mask0_51_210" style="mask-type:alpha" maskUnits="userSpaceOnUse" x="0" y="0" width="40" height="40">
<rect width="40" height="40" fill="#D9D9D9"/>
</mask>
<g mask="url(#mask0_51_210)">
<rect x="-6.66666" width="53.3333" height="40" fill="#165D31"/>
<path d="M36 17.1868L35.3926 18.789C34.5064 19.1118 33.4793 19.3847 32.3114 19.6077C31.1494 19.8249 30.0783 19.9334 29.0982 19.9334H26.9062V18.4017H29.019C28.8488 18.1258 28.7109 17.8148 28.6052 17.4685C28.4996 17.1164 28.4468 16.776 28.4468 16.4473C28.4468 15.7548 28.7343 15.1738 29.3095 14.7043C29.8905 14.2348 30.6359 14 31.5455 14C32.2674 14 32.8631 14.1761 33.3326 14.5282C33.5321 14.6749 33.8696 15.0359 34.345 15.611L34.1777 15.7607C33.7728 15.6492 33.4089 15.567 33.0861 15.5142C32.7633 15.4555 32.4288 15.4261 32.0825 15.4261C31.2726 15.4261 30.6359 15.5171 30.1722 15.699C29.7144 15.8751 29.4856 16.1099 29.4856 16.4033C29.4856 16.6909 29.6294 17.0137 29.9169 17.3717C30.2104 17.7238 30.586 18.0378 31.0437 18.3136C32.0062 18.1669 32.7956 18.026 33.4118 17.8911C34.0281 17.7502 34.8908 17.5155 36 17.1868Z" fill="white"/>
<path d="M27.5136 19.9334C27.5136 20.579 27.2378 21.248 26.6861 21.9406C26.2048 22.5509 25.6062 23.0762 24.8902 23.5164C24.2094 23.9389 23.6489 24.1502 23.2088 24.1502C22.8038 24.1502 22.3666 24.0915 21.8971 23.9741C21.5391 23.8861 21.1107 23.7482 20.6118 23.5604C20.1892 23.4019 19.7696 23.2434 19.3529 23.085L19.5026 22.7329C19.8899 22.8092 20.292 22.8854 20.7086 22.9617C21.1312 23.0439 21.5127 23.085 21.8531 23.085C22.6043 23.085 23.3878 22.8444 24.2036 22.3631C24.943 21.923 25.5739 21.3683 26.0963 20.6993C26.6186 20.0244 26.8798 19.4169 26.8798 18.877C26.8798 18.4134 26.7448 17.9263 26.4748 17.4157C26.2577 17.0048 25.9525 16.5823 25.5593 16.148L26.0611 14.7659C26.5423 15.2119 26.8974 15.6579 27.1263 16.104C27.3845 16.6087 27.5136 17.1721 27.5136 17.7942V19.9334Z" fill="white"/>
<path d="M18.7015 19.9334H13.6836V18.4017H18.0589C18.0589 17.7091 17.9767 17.1809 17.8124 16.8171C17.7009 16.5647 17.425 16.2008 16.9849 15.7255L17.6715 14.2905C18.0941 14.8246 18.3582 15.2413 18.4638 15.5406C18.6223 15.9925 18.7015 16.7408 18.7015 17.7854V19.9334ZM17.8036 22.0726L17.1169 23.3491L15.6908 22.6096L16.3422 21.3244L17.8036 22.0726Z" fill="white"/>
<path d="M14.2911 19.9334H12.7505C11.8467 19.9334 11.1659 19.9569 10.7081 20.0039C10.2562 20.0508 10.0303 20.1447 10.0303 20.2856C10.0303 20.4792 10.3032 20.5761 10.849 20.5761C11.0896 20.5761 11.2803 20.5819 11.4212 20.5937C11.562 20.6054 11.8702 20.6377 12.3455 20.6905C12.6272 20.7257 12.8209 20.7697 12.9265 20.8226C13.0967 20.9106 13.1818 21.0632 13.1818 21.2803C13.1818 22.3778 12.8209 23.176 12.099 23.6748C11.3126 24.2206 10.0127 24.4935 8.19918 24.4935C6.93737 24.4935 5.93379 24.2793 5.18845 23.8509C4.39615 23.3931 4 22.7417 4 21.8966C4 21.2158 4.1878 20.4939 4.56341 19.731C4.6984 19.4551 5.05346 18.8653 5.62861 17.9615L5.98074 18.1376C5.75773 18.519 5.53764 18.8976 5.3205 19.2732C4.98597 19.9188 4.81871 20.447 4.81871 20.8578C4.81871 21.5796 5.19431 22.1284 5.94553 22.504C6.66153 22.862 7.64457 23.041 8.89464 23.041C9.73388 23.041 10.4734 22.9764 11.1131 22.8473C11.8995 22.6889 12.2927 22.4717 12.2927 22.1959C12.2927 22.0961 12.2487 22.0227 12.1607 21.9758C12.0726 21.923 11.9259 21.8966 11.7205 21.8966C11.562 21.879 11.3126 21.8613 10.9722 21.8437C10.6377 21.8203 10.4176 21.8085 10.312 21.8085C9.94223 21.8085 9.67813 21.7616 9.51967 21.6677C9.36121 21.5679 9.28198 21.4212 9.28198 21.2275C9.28198 20.4998 9.4962 19.9041 9.92462 19.4404C10.2768 19.0648 10.7492 18.7861 11.342 18.6041C11.788 18.4691 12.2575 18.4017 12.7505 18.4017H14.2911V19.9334ZM10.6465 25.5763L9.82779 26.3334L8.84182 25.7084L9.63411 24.8809L10.6465 25.5763ZM8.82421 25.5763L8.02311 26.3334L7.00193 25.7084L7.82063 24.8809L8.82421 25.5763Z" fill="white"/>
</g>
</g>
<defs>
<clipPath id="clip0_51_210">
<rect width="40" height="40" fill="white"/>
</clipPath>
</defs>
</svg>
