<svg width="40" height="40" viewBox="0 0 40 40" fill="none" xmlns="http://www.w3.org/2000/svg">
<g clip-path="url(#clip0_51_209)">
<mask id="mask0_51_209" style="mask-type:alpha" maskUnits="userSpaceOnUse" x="0" y="0" width="40" height="40">
<rect width="40" height="40" fill="#D9D9D9"/>
</mask>
<g mask="url(#mask0_51_209)">
<path d="M-6.66666 0H46.6667V40H-6.66666V0Z" fill="#012169"/>
<path d="M-0.416656 0L19.9167 15.0833L40.1667 0H46.6667V5.16667L26.6667 20.0833L46.6667 34.9167V40H40L20 25.0833L0.0833437 40H-6.66666V35L13.25 20.1667L-6.66666 5.33333V0H-0.416656Z" fill="white"/>
<path d="M28.6667 23.4167L46.6667 36.6667V40L24.0833 23.4167H28.6667ZM13.3333 25.0833L13.8333 28L-2.16666 40H-6.66666L13.3333 25.0833ZM46.6667 0V0.25L25.9167 15.9167L26.0833 12.25L42.5 0H46.6667ZM-6.66666 0L13.25 14.6667H8.25001L-6.66666 3.5V0Z" fill="#C8102E"/>
<path d="M13.4167 0V40H26.75V0H13.4167ZM-6.66666 13.3333V26.6667H46.6667V13.3333H-6.66666Z" fill="white"/>
<path d="M-6.66666 16.0833V24.0833H46.6667V16.0833H-6.66666ZM16.0833 0V40H24.0833V0H16.0833Z" fill="#C8102E"/>
</g>
</g>
<defs>
<clipPath id="clip0_51_209">
<rect width="40" height="40" fill="white"/>
</clipPath>
</defs>
</svg>
